<svg width="25" height="25" viewBox="0 0 25 25" fill="none" xmlns="http://www.w3.org/2000/svg">
    <path fill-rule="evenodd" clip-rule="evenodd"
        d="M12.0935 0.0192392C11.9264 -0.0104233 11.755 -0.00574506 11.5898 0.0329888C5.1124 0.50048 0 5.90287 0 12.5002C0 19.4039 5.59614 25 12.4998 25C17.9446 25 22.5721 21.5201 24.287 16.6664C24.3563 16.4702 24.3755 16.2598 24.3429 16.0543C24.3103 15.8488 24.2269 15.6546 24.1002 15.4895C23.9736 15.3244 23.8078 15.1935 23.6177 15.1087C23.4277 15.0239 23.2195 14.9879 23.012 15.0039C22.9121 15.0114 22.8808 15.0102 22.8533 15.0102H22.8521L22.8171 15.0077C22.7113 15.0025 22.6054 15 22.4996 15.0002C19.8474 15.0002 17.304 13.9466 15.4286 12.0713C13.5533 10.196 12.4998 7.6525 12.4998 5.00039C12.4998 3.81041 12.651 2.81043 13.0047 1.80295C13.0838 1.6357 13.1248 1.45298 13.1247 1.26796V1.25046C13.1249 0.956795 13.0216 0.672456 12.833 0.447321C12.6445 0.222186 12.3827 0.0706315 12.0935 0.0192392Z"
        fill="white" />
</svg>
    