<svg width="25" height="25" viewBox="0 0 25 25" fill="none" xmlns="http://www.w3.org/2000/svg">
    <path fill-rule="evenodd" clip-rule="evenodd"
        d="M13.75 1.25C13.75 0.918479 13.6183 0.600537 13.3839 0.366116C13.1495 0.131696 12.8315 0 12.5 0C12.1685 0 11.8505 0.131696 11.6161 0.366116C11.3817 0.600537 11.25 0.918479 11.25 1.25V3.75C11.25 4.08152 11.3817 4.39946 11.6161 4.63388C11.8505 4.8683 12.1685 5 12.5 5C12.8315 5 13.1495 4.8683 13.3839 4.63388C13.6183 4.39946 13.75 4.08152 13.75 3.75V1.25ZM5.42875 3.66125C5.19194 3.43918 4.87802 3.31796 4.55341 3.32323C4.22881 3.3285 3.91899 3.45985 3.68951 3.68949C3.46003 3.91913 3.3289 4.22904 3.32386 4.55365C3.31882 4.87826 3.44026 5.19209 3.6625 5.42875L5.43 7.19625C5.66575 7.42395 5.98151 7.54994 6.30925 7.54709C6.637 7.54424 6.95051 7.41278 7.18227 7.18102C7.41403 6.94926 7.54549 6.63575 7.54834 6.308C7.55119 5.98026 7.4252 5.6645 7.1975 5.42875L5.42875 3.66125ZM21.3387 5.42875C21.5664 5.193 21.6924 4.87724 21.6896 4.5495C21.6867 4.22175 21.5553 3.90824 21.3235 3.67648C21.0918 3.44472 20.7782 3.31326 20.4505 3.31041C20.1228 3.30756 19.807 3.43355 19.5712 3.66125L17.8038 5.42875C17.5761 5.6645 17.4501 5.98026 17.4529 6.308C17.4558 6.63575 17.5872 6.94926 17.819 7.18102C18.0507 7.41278 18.3643 7.54424 18.692 7.54709C19.0197 7.54994 19.3355 7.42395 19.5712 7.19625L21.3387 5.42875ZM12.5 6.25C10.8424 6.25 9.25269 6.90848 8.08058 8.08058C6.90848 9.25269 6.25 10.8424 6.25 12.5C6.25 14.1576 6.90848 15.7473 8.08058 16.9194C9.25269 18.0915 10.8424 18.75 12.5 18.75C14.1576 18.75 15.7473 18.0915 16.9194 16.9194C18.0915 15.7473 18.75 14.1576 18.75 12.5C18.75 10.8424 18.0915 9.25269 16.9194 8.08058C15.7473 6.90848 14.1576 6.25 12.5 6.25ZM1.25 11.25C0.918479 11.25 0.600537 11.3817 0.366116 11.6161C0.131696 11.8505 0 12.1685 0 12.5C0 12.8315 0.131696 13.1495 0.366116 13.3839C0.600537 13.6183 0.918479 13.75 1.25 13.75H3.75C4.08152 13.75 4.39946 13.6183 4.63388 13.3839C4.8683 13.1495 5 12.8315 5 12.5C5 12.1685 4.8683 11.8505 4.63388 11.6161C4.39946 11.3817 4.08152 11.25 3.75 11.25H1.25ZM21.25 11.25C20.9185 11.25 20.6005 11.3817 20.3661 11.6161C20.1317 11.8505 20 12.1685 20 12.5C20 12.8315 20.1317 13.1495 20.3661 13.3839C20.6005 13.6183 20.9185 13.75 21.25 13.75H23.75C24.0815 13.75 24.3995 13.6183 24.6339 13.3839C24.8683 13.1495 25 12.8315 25 12.5C25 12.1685 24.8683 11.8505 24.6339 11.6161C24.3995 11.3817 24.0815 11.25 23.75 11.25H21.25ZM7.19625 19.5712C7.31564 19.4559 7.41087 19.318 7.47638 19.1655C7.54189 19.013 7.57637 18.849 7.57781 18.683C7.57925 18.517 7.54763 18.3524 7.48478 18.1988C7.42193 18.0452 7.32911 17.9056 7.21174 17.7883C7.09438 17.6709 6.95481 17.5781 6.80119 17.5152C6.64757 17.4524 6.48297 17.4207 6.317 17.4222C6.15102 17.4236 5.987 17.4581 5.83449 17.5236C5.68199 17.5891 5.54406 17.6844 5.42875 17.8038L3.66125 19.5712C3.54186 19.6866 3.44663 19.8245 3.38112 19.977C3.31561 20.1295 3.28113 20.2935 3.27969 20.4595C3.27824 20.6255 3.30987 20.7901 3.37272 20.9437C3.43557 21.0973 3.52839 21.2369 3.64576 21.3542C3.76312 21.4716 3.90269 21.5644 4.05631 21.6273C4.20993 21.6901 4.37453 21.7218 4.5405 21.7203C4.70648 21.7189 4.8705 21.6844 5.02301 21.6189C5.17551 21.5534 5.31344 21.4581 5.42875 21.3387L7.19625 19.5712ZM19.5712 17.8038C19.3355 17.5761 19.0197 17.4501 18.692 17.4529C18.3643 17.4558 18.0507 17.5872 17.819 17.819C17.5872 18.0507 17.4558 18.3643 17.4529 18.692C17.4501 19.0197 17.5761 19.3355 17.8038 19.5712L19.5712 21.3387C19.807 21.5664 20.1228 21.6924 20.4505 21.6896C20.7782 21.6867 21.0918 21.5553 21.3235 21.3235C21.5553 21.0918 21.6867 20.7782 21.6896 20.4505C21.6924 20.1228 21.5664 19.807 21.3387 19.5712L19.5712 17.8038ZM13.75 21.25C13.75 20.9185 13.6183 20.6005 13.3839 20.3661C13.1495 20.1317 12.8315 20 12.5 20C12.1685 20 11.8505 20.1317 11.6161 20.3661C11.3817 20.6005 11.25 20.9185 11.25 21.25V23.75C11.25 24.0815 11.3817 24.3995 11.6161 24.6339C11.8505 24.8683 12.1685 25 12.5 25C12.8315 25 13.1495 24.8683 13.3839 24.6339C13.6183 24.3995 13.75 24.0815 13.75 23.75V21.25Z"
        fill="white" />
</svg>
    