<svg width="70" height="40" viewBox="0 0 70 40" fill="none" xmlns="http://www.w3.org/2000/svg">
    <circle cx="20" cy="20" r="20" fill="black"/>
    <path d="M67.6093 16.2291L61.625 18.2222V26.9797C61.6246 28.2754 61.1913 29.5339 60.3938 30.5552C59.5964 31.5764 58.4806 32.302 57.2236 32.6165C55.9666 32.9311 54.6406 32.8167 53.4561 32.2914C52.2716 31.7661 51.2966 30.86 50.686 29.7172C50.0753 28.5744 49.864 27.2603 50.0857 25.9836C50.3073 24.707 50.9492 23.541 51.9093 22.6709C52.8695 21.8008 54.0928 21.2765 55.385 21.1812C56.6773 21.0859 57.9643 21.4251 59.0417 22.145V12.6964C59.0417 11.8832 59.2975 11.0906 59.773 10.4308C60.2484 9.77104 60.9194 9.27759 61.6909 9.02033L66.8253 7.30887C67.1165 7.21188 67.4266 7.18546 67.73 7.2318C68.0334 7.27814 68.3215 7.3959 68.5705 7.5754C68.8195 7.75489 69.0223 7.99097 69.1622 8.2642C69.302 8.53742 69.375 8.83997 69.375 9.14692V13.7775C69.3752 14.3198 69.2048 14.8484 68.8879 15.2884C68.571 15.7284 68.1237 16.0575 67.6093 16.2291Z" fill="black"/>
    </svg>
    