<svg width="40" height="40" viewBox="0 0 40 40" fill="none" xmlns="http://www.w3.org/2000/svg">
    <rect width="40" height="40" fill="black"/>
    <circle cx="20" cy="20" r="20" fill="white"/>
    <path d="M27.6093 16.0195L21.625 18.0126V26.7701C21.6246 28.0658 21.1913 29.3243 20.3938 30.3456C19.5964 31.3668 18.4806 32.0924 17.2236 32.407C15.9666 32.7215 14.6406 32.6071 13.4561 32.0818C12.2716 31.5565 11.2966 30.6504 10.686 29.5076C10.0753 28.3648 9.86403 27.0507 10.0857 25.774C10.3073 24.4974 10.9492 23.3314 11.9093 22.4613C12.8695 21.5912 14.0928 21.0669 15.385 20.9716C16.6773 20.8763 17.9643 21.2155 19.0417 21.9354V12.4868C19.0417 11.6736 19.2975 10.881 19.773 10.2212C20.2484 9.56144 20.9194 9.06799 21.6909 8.81074L26.8253 7.09928C27.1165 7.00228 27.4266 6.97587 27.73 7.02221C28.0334 7.06854 28.3215 7.18631 28.5705 7.3658C28.8195 7.54529 29.0223 7.78138 29.1622 8.0546C29.302 8.32783 29.375 8.63037 29.375 8.93732V13.5679C29.3752 14.1102 29.2048 14.6388 28.8879 15.0788C28.571 15.5188 28.1237 15.8479 27.6093 16.0195Z" fill="black"/>
    </svg>
    