<svg width="25" height="25" viewBox="0 0 25 25" fill="none" xmlns="http://www.w3.org/2000/svg">
    <path
        d="M0 5C0 2.6425 -7.45058e-08 1.465 0.7325 0.7325C1.465 -7.45058e-08 2.6425 0 5 0C7.3575 0 8.535 -7.45058e-08 9.2675 0.7325C10 1.465 10 2.6425 10 5V20C10 22.3575 10 23.535 9.2675 24.2675C8.535 25 7.3575 25 5 25C2.6425 25 1.465 25 0.7325 24.2675C-7.45058e-08 23.535 0 22.3575 0 20V5ZM15 5C15 2.6425 15 1.465 15.7325 0.7325C16.465 -7.45058e-08 17.6425 0 20 0C22.3575 0 23.535 -7.45058e-08 24.2675 0.7325C25 1.465 25 2.6425 25 5V20C25 22.3575 25 23.535 24.2675 24.2675C23.535 25 22.3575 25 20 25C17.6425 25 16.465 25 15.7325 24.2675C15 23.535 15 22.3575 15 20V5Z"
        fill="white" />
</svg>
    