<svg width="25" height="25" viewBox="0 0 25 25" fill="none" xmlns="http://www.w3.org/2000/svg">
    <g clip-path="url(#clip0_69_34)">
        <mask id="mask0_69_34" style="mask-type:luminance" maskUnits="userSpaceOnUse" x="0" y="0"
            width="25" height="25">
            <path d="M0 0H25V25H0V0Z" fill="white" />
        </mask>
        <g mask="url(#mask0_69_34)">
            <path fill-rule="evenodd" clip-rule="evenodd"
                d="M3.125 7.81247H6.25L10.1281 3.93435C10.5145 3.54811 11.0066 3.28509 11.5425 3.17854C12.0783 3.07199 12.6336 3.1267 13.1383 3.33574C13.6431 3.54479 14.0745 3.89879 14.378 4.35298C14.6816 4.80718 14.8436 5.34118 14.8438 5.88747V19.1125C14.8436 19.6588 14.6816 20.1928 14.378 20.647C14.0745 21.1012 13.6431 21.4552 13.1383 21.6642C12.6336 21.8732 12.0783 21.928 11.5425 21.8214C11.0066 21.7149 10.5145 21.4518 10.1281 21.0656L6.25 17.1875H3.125C2.2962 17.1875 1.50134 16.8582 0.915291 16.2722C0.32924 15.6861 0 14.8913 0 14.0625V10.9375C0 10.1087 0.32924 9.31382 0.915291 8.72777C1.50134 8.14171 2.2962 7.81247 3.125 7.81247ZM22.1281 20.4734C21.7141 20.9718 20.9672 20.9672 20.5094 20.5109C20.0531 20.0531 20.0594 19.314 20.4609 18.8078C21.8862 17.0146 22.6602 14.7906 22.6562 12.5C22.6602 10.2094 21.8862 7.98534 20.4609 6.19216C20.0594 5.68591 20.0531 4.94685 20.5094 4.48904C20.9672 4.03279 21.7141 4.02966 22.1281 4.52654C23.9882 6.76686 25.0043 9.58814 25 12.5C25 15.5312 23.9219 18.3093 22.1281 20.4734ZM18.7875 17.1375C18.4031 17.6578 17.6531 17.6531 17.1953 17.1953C16.7375 16.7375 16.7516 16.0015 17.1016 15.4562C17.668 14.5743 17.969 13.5481 17.9688 12.5C17.9687 11.4109 17.65 10.3953 17.1016 9.54372C16.7516 8.99997 16.7375 8.26247 17.1953 7.80466C17.6531 7.34685 18.4031 7.34216 18.7891 7.86247C19.7453 9.15935 20.3125 10.7656 20.3125 12.5C20.3148 14.1694 19.7801 15.7953 18.7875 17.1375Z"
                fill="black" />
        </g>
    </g>
    <defs>
        <clipPath id="clip0_69_34">
            <rect width="25" height="25" fill="white" />
        </clipPath>
    </defs>
</svg>
    